<?xml version="1.0" standalone="no"?>
<!DOCTYPE svg PUBLIC "-//W3C//DTD SVG 20010904//EN"
 "http://www.w3.org/TR/2001/REC-SVG-20010904/DTD/svg10.dtd">
<svg version="1.0" xmlns="http://www.w3.org/2000/svg"
 width="332.000000pt" height="332.000000pt" viewBox="0 0 332.000000 332.000000"
 preserveAspectRatio="xMidYMid meet">
<metadata>
Created by potrace 1.11, written by Peter Selinger 2001-2013
</metadata>
<g transform="translate(0.000000,332.000000) scale(0.100000,-0.100000)"
fill="#000000" stroke="none">
<path d="M340 2320 l0 -660 265 0 265 0 0 -655 0 -655 980 0 980 0 0 985 0
985 -715 0 -715 0 0 330 0 330 -530 0 -530 0 0 -660z m898 248 l2 -248 -185 0
-185 0 0 -250 0 -250 -182 2 -183 3 -3 485 c-1 267 0 491 3 498 3 10 82 12
367 10 l363 -3 3 -247z m-3 -578 l0 -165 -100 0 -100 0 -3 155 c-1 85 0 160 3
167 3 11 28 13 102 11 l98 -3 0 -165z m1430 -655 l0 -820 -815 0 -815 0 -3
573 -2 572 185 0 185 0 0 250 0 250 633 -2 632 -3 0 -820z"/>
</g>
</svg>
